<?xml version="1.0" encoding="utf-8"?>
<!-- Generator: Adobe Illustrator 16.0.0, SVG Export Plug-In . SVG Version: 6.00 Build 0)  -->
<!DOCTYPE svg PUBLIC "-//W3C//DTD SVG 1.1//EN" "http://www.w3.org/Graphics/SVG/1.1/DTD/svg11.dtd">
<svg version="1.1" id="Layer_1" xmlns="http://www.w3.org/2000/svg" xmlns:xlink="http://www.w3.org/1999/xlink" x="0px" y="0px"
	 width="200px" height="200px" viewBox="0 0 200 200" enable-background="new 0 0 200 200" xml:space="preserve">
<g>
	<g enable-background="new    ">
		<g>
			<path fill="#37B34A" d="M133.443,150.54c-0.003,0.001-0.006,0.003-0.009,0.005c-0.003,0.001-0.006,0.002-0.009,0.003
				c-0.003,0.002-0.007,0.004-0.01,0.005c-0.003,0.002-0.006,0.003-0.009,0.005c-0.668,0.302-1.349,0.427-2.005,0.394
				c-0.661-0.034-1.297-0.229-1.87-0.563c-0.577-0.337-1.09-0.815-1.5-1.415c-0.412-0.601-0.72-1.321-0.885-2.138
				c-0.166-0.819-0.172-1.673-0.043-2.509c0.128-0.834,0.391-1.647,0.761-2.39c0.368-0.738,0.843-1.406,1.397-1.954
				c0.551-0.544,1.18-0.97,1.862-1.229c0.003-0.001,0.007-0.003,0.01-0.004c0.003-0.002,0.006-0.003,0.009-0.004
				c0.003-0.002,0.007-0.002,0.01-0.003c0.003-0.002,0.006-0.003,0.01-0.004c0.666-0.245,1.34-0.311,1.985-0.225
				c0.641,0.086,1.252,0.322,1.799,0.683c0.543,0.358,1.022,0.841,1.403,1.421c0.379,0.579,0.661,1.258,0.81,2.014
				c0.15,0.764,0.157,1.56,0.043,2.343c-0.113,0.786-0.348,1.563-0.683,2.281c-0.335,0.723-0.773,1.39-1.291,1.951
				C134.707,149.773,134.104,150.234,133.443,150.54 M131.514,38.775c-3.227-0.765-6.577-1.561-10.06-2.39
				c-3.622-0.862-7.393-1.762-11.321-2.701c-4.096-0.98-8.37-2.007-12.834-3.08c-4.668-1.125-9.554-2.305-14.673-3.544
				c-0.43,0.039-0.87,0.063-1.315,0.085c-0.446,0.022-0.897,0.042-1.343,0.07c-0.448,0.028-0.892,0.067-1.323,0.127
				c-0.433,0.059-0.853,0.14-1.252,0.254c-1.516,0.44-2.796,1.076-3.839,1.896c-1.053,0.829-1.861,1.846-2.425,3.037
				c-0.567,1.199-0.887,2.57-0.963,4.103c-0.077,1.535,0.091,3.225,0.493,5.053c1.904,8.692,3.795,17.312,5.672,25.86
				c1.861,8.477,3.707,16.883,5.539,25.221c1.816,8.268,3.618,16.469,5.404,24.602c1.772,8.068,3.529,16.071,5.27,24.01
				c0.321,1.461,0.637,2.922,0.951,4.38c0.314,1.457,0.627,2.91,0.943,4.361c0.314,1.449,0.631,2.895,0.954,4.334
				c0.322,1.439,0.649,2.871,0.985,4.298c0.378,1.604,0.908,3.035,1.589,4.279c0.677,1.238,1.502,2.286,2.475,3.139
				c0.965,0.844,2.071,1.491,3.318,1.935c1.232,0.438,2.597,0.677,4.091,0.71c0.389,0.011,0.784-0.011,1.182-0.055
				c0.396-0.042,0.796-0.105,1.196-0.179c0.398-0.072,0.797-0.153,1.193-0.231c0.395-0.077,0.787-0.152,1.175-0.212
				c4.087-2.1,8.002-4.104,11.755-6.021c3.602-1.833,7.059-3.589,10.383-5.271c3.196-1.614,6.273-3.164,9.237-4.654
				c2.856-1.433,5.611-2.812,8.271-4.14c0.192-0.194,0.389-0.383,0.586-0.569c0.197-0.187,0.394-0.372,0.588-0.56
				c0.193-0.188,0.384-0.379,0.567-0.579s0.358-0.407,0.524-0.629c0.669-0.904,1.227-1.834,1.674-2.791
				c0.443-0.949,0.779-1.93,1.005-2.94c0.225-1.007,0.343-2.047,0.351-3.122c0.009-1.074-0.092-2.187-0.304-3.341
				c-0.139-0.75-0.278-1.5-0.417-2.252c-0.139-0.751-0.278-1.503-0.418-2.255c-0.14-0.754-0.28-1.507-0.42-2.26
				c-0.141-0.754-0.281-1.508-0.422-2.262c-0.014-0.072-0.028-0.143-0.043-0.212c-0.015-0.069-0.031-0.138-0.047-0.205
				c-0.016-0.068-0.032-0.135-0.048-0.201c-0.016-0.067-0.032-0.133-0.047-0.197c-3.33,1.107-6.809,2.268-10.45,3.485
				c-3.818,1.28-7.823,2.627-12.03,4.047c-4.428,1.498-9.091,3.082-14.013,4.76c-5.201,1.78-10.706,3.671-16.547,5.686
				c-1.656-7.724-3.326-15.507-5.009-23.352c-1.697-7.907-3.409-15.877-5.134-23.911c-1.74-8.099-3.495-16.263-5.265-24.495
				c-1.786-8.301-3.586-16.67-5.403-25.111c6.029,0.94,11.732,1.828,17.139,2.667c5.133,0.794,10.013,1.548,14.659,2.265
				c4.429,0.682,8.655,1.33,12.696,1.95c3.863,0.591,7.564,1.155,11.115,1.697c0.061,0.324,0.122,0.645,0.181,0.963
				c0.06,0.317,0.12,0.633,0.179,0.947c0.059,0.313,0.118,0.624,0.176,0.935c0.059,0.311,0.117,0.619,0.175,0.928
				c0.081,0.43,0.141,0.751,0.208,0.994c0.067,0.244,0.141,0.41,0.249,0.527s0.248,0.186,0.448,0.235
				c0.2,0.051,0.458,0.081,0.802,0.121c0.249,0.029,0.497,0.06,0.745,0.089c0.246,0.028,0.492,0.058,0.737,0.086
				c0.245,0.029,0.488,0.058,0.73,0.087c0.242,0.028,0.483,0.058,0.724,0.085c0.08,0.011,0.161,0.02,0.241,0.029
				c0.08,0.009,0.162,0.02,0.243,0.028c0.082,0.01,0.164,0.02,0.247,0.029c0.083,0.01,0.165,0.02,0.249,0.029
				c-0.129-0.695-0.249-1.381-0.365-2.06c-0.117-0.678-0.23-1.35-0.348-2.017c-0.118-0.667-0.24-1.33-0.374-1.992
				c-0.133-0.662-0.278-1.323-0.442-1.987c-0.25-1.002-0.572-1.964-0.963-2.883c-0.393-0.923-0.857-1.804-1.39-2.64
				c-0.535-0.842-1.141-1.642-1.813-2.394c-0.678-0.759-1.425-1.472-2.24-2.137c-0.315-0.255-0.638-0.49-0.966-0.712
				c-0.329-0.224-0.663-0.434-0.999-0.64c-0.338-0.206-0.679-0.407-1.02-0.61C132.198,39.201,131.855,38.994,131.514,38.775"/>
			<path fill="#37B34A" d="M149.075,100.59c-0.002,0.001-0.005,0.001-0.008,0.002c-0.002,0.001-0.005,0.001-0.008,0.001
				c-0.003,0-0.005,0.001-0.008,0.001c-0.003,0.001-0.005,0.001-0.008,0.002c-0.855,0.132-1.728,0.024-2.573-0.285
				c-0.854-0.313-1.677-0.834-2.423-1.52c-0.753-0.691-1.424-1.55-1.964-2.53c-0.543-0.986-0.952-2.093-1.176-3.271
				c-0.224-1.187-0.246-2.338-0.093-3.4c0.151-1.06,0.476-2.025,0.942-2.847c0.463-0.816,1.066-1.487,1.777-1.966
				c0.705-0.474,1.514-0.757,2.4-0.807c0.005-0.001,0.01-0.001,0.016-0.001c0.005,0,0.01-0.001,0.016-0.001
				c0.005-0.001,0.01,0,0.016-0.001c0.006,0,0.011,0,0.016-0.001c0.864-0.038,1.729,0.162,2.55,0.552
				c0.812,0.385,1.582,0.957,2.267,1.667c0.68,0.705,1.278,1.549,1.754,2.487c0.473,0.936,0.827,1.967,1.02,3.058
				c0.194,1.089,0.217,2.147,0.093,3.132c-0.125,0.987-0.399,1.904-0.799,2.702c-0.402,0.804-0.934,1.491-1.571,2.012
				C150.668,100.1,149.915,100.456,149.075,100.59 M139.677,64.549c-0.117-0.01-0.199,0.007-0.255,0.042
				c-0.056,0.037-0.085,0.093-0.098,0.161c-0.012,0.07-0.008,0.153,0.004,0.243c0.012,0.091,0.032,0.188,0.051,0.287
				c0.098,0.521,0.195,1.042,0.291,1.563s0.192,1.041,0.29,1.562c0.097,0.519,0.196,1.039,0.296,1.559
				c0.101,0.52,0.204,1.038,0.312,1.556c0.035,0.167,0.052,0.309,0.052,0.428c-0.001,0.118-0.02,0.217-0.057,0.297
				c-0.038,0.079-0.094,0.142-0.17,0.19c-0.077,0.049-0.173,0.085-0.29,0.111c-0.428,0.097-0.845,0.223-1.25,0.377
				c-0.408,0.155-0.804,0.338-1.189,0.549c-0.387,0.21-0.762,0.448-1.125,0.714c-0.365,0.267-0.717,0.559-1.058,0.877
				c-0.039,0.035-0.076,0.065-0.112,0.092c-0.037,0.025-0.072,0.047-0.107,0.064c-0.035,0.017-0.069,0.029-0.103,0.037
				c-0.034,0.009-0.067,0.012-0.101,0.012c-0.045,0-0.091-0.009-0.138-0.025c-0.046-0.016-0.094-0.04-0.144-0.072
				c-0.049-0.031-0.101-0.07-0.155-0.118c-0.054-0.046-0.111-0.101-0.173-0.163c-0.423-0.436-0.849-0.871-1.277-1.308
				c-0.43-0.437-0.863-0.875-1.296-1.312c-0.435-0.439-0.871-0.878-1.307-1.316c-0.438-0.44-0.875-0.882-1.311-1.32
				c-0.334,0.488-0.667,0.976-1.002,1.466c-0.335,0.493-0.673,0.987-1.015,1.49c-0.343,0.506-0.691,1.02-1.047,1.545
				c-0.358,0.529-0.724,1.071-1.102,1.632c0.525,0.479,1.05,0.958,1.573,1.436c0.521,0.475,1.041,0.948,1.559,1.42
				c0.515,0.47,1.028,0.938,1.538,1.403c0.508,0.464,1.013,0.925,1.515,1.385c-0.192,0.567-0.366,1.139-0.518,1.717
				c-0.152,0.58-0.281,1.167-0.385,1.763c-0.104,0.597-0.182,1.203-0.23,1.821c-0.048,0.617-0.066,1.247-0.052,1.889
				c0.006,0.224-0.005,0.413-0.036,0.571c-0.031,0.159-0.081,0.288-0.155,0.39c-0.074,0.103-0.171,0.179-0.295,0.233
				c-0.124,0.054-0.275,0.086-0.457,0.1c-0.012,0.001-0.023,0.002-0.036,0.003c-0.012,0.001-0.024,0.001-0.036,0.002
				c-0.013,0-0.025,0.001-0.038,0.002c-0.012,0-0.025,0-0.038,0.001c-0.216,0.008-0.433,0.018-0.649,0.028
				c-0.217,0.011-0.435,0.023-0.653,0.037c-0.218,0.013-0.438,0.027-0.657,0.043c-0.22,0.015-0.441,0.031-0.662,0.049
				c-0.296,0.022-0.593,0.046-0.892,0.07c-0.299,0.025-0.601,0.051-0.903,0.076c-0.304,0.025-0.61,0.051-0.917,0.076
				c-0.309,0.025-0.619,0.051-0.932,0.074c0.149,0.75,0.297,1.491,0.443,2.229c0.147,0.736,0.293,1.47,0.439,2.203
				c0.146,0.731,0.292,1.463,0.438,2.197s0.292,1.471,0.441,2.214c0.631-0.082,1.255-0.164,1.873-0.244
				c0.613-0.08,1.22-0.16,1.821-0.238c0.598-0.077,1.191-0.155,1.78-0.231c0.586-0.076,1.168-0.152,1.748-0.227
				c0.254,0.688,0.53,1.354,0.825,2c0.295,0.644,0.61,1.268,0.943,1.871c0.333,0.603,0.684,1.187,1.052,1.753
				c0.367,0.565,0.751,1.114,1.15,1.647c0.037,0.05,0.066,0.118,0.087,0.197c0.021,0.08,0.035,0.169,0.041,0.259
				s0.004,0.18-0.006,0.263c-0.01,0.083-0.028,0.156-0.055,0.214c-0.121,0.25-0.245,0.498-0.372,0.743
				c-0.128,0.245-0.258,0.49-0.39,0.733c-0.133,0.244-0.267,0.485-0.403,0.728c-0.136,0.243-0.274,0.485-0.413,0.729
				c-0.148,0.259-0.298,0.518-0.45,0.774c-0.151,0.258-0.304,0.514-0.456,0.769c-0.152,0.256-0.304,0.51-0.454,0.761
				c-0.15,0.253-0.299,0.504-0.445,0.751c0.541,0.437,1.067,0.859,1.584,1.276c0.514,0.414,1.019,0.821,1.52,1.227
				c0.499,0.403,0.994,0.804,1.492,1.206c0.495,0.4,0.992,0.803,1.495,1.211c0.261-0.521,0.519-1.034,0.774-1.54
				c0.254-0.505,0.505-1.005,0.752-1.499c0.247-0.494,0.49-0.983,0.729-1.472c0.239-0.486,0.474-0.972,0.706-1.459
				c0.037-0.075,0.073-0.142,0.11-0.201s0.074-0.11,0.113-0.153c0.039-0.044,0.079-0.079,0.121-0.106
				c0.042-0.026,0.086-0.046,0.134-0.056c0.033-0.008,0.068-0.011,0.105-0.01c0.037,0.001,0.075,0.006,0.116,0.016
				c0.041,0.01,0.084,0.023,0.129,0.042s0.093,0.041,0.144,0.067c0.443,0.235,0.889,0.44,1.335,0.614
				c0.444,0.174,0.89,0.319,1.336,0.437c0.444,0.117,0.889,0.207,1.334,0.272c0.443,0.065,0.886,0.105,1.329,0.124
				c0.118,0.006,0.218,0.024,0.304,0.059c0.085,0.033,0.157,0.083,0.216,0.149c0.06,0.066,0.108,0.15,0.148,0.254
				c0.04,0.104,0.071,0.227,0.097,0.372c0.082,0.477,0.167,0.952,0.254,1.428c0.086,0.476,0.176,0.95,0.266,1.425
				s0.181,0.948,0.272,1.422c0.091,0.473,0.182,0.945,0.272,1.417c0.014,0.074,0.029,0.148,0.045,0.222
				c0.017,0.073,0.033,0.146,0.051,0.218c0.018,0.073,0.036,0.146,0.053,0.217c0.017,0.072,0.035,0.144,0.051,0.215
				c0.478-0.14,0.948-0.278,1.412-0.415c0.462-0.135,0.919-0.27,1.373-0.402c0.451-0.133,0.899-0.264,1.348-0.396
				c0.445-0.13,0.891-0.261,1.337-0.392c-0.016-0.087-0.032-0.17-0.046-0.25s-0.029-0.158-0.043-0.233
				c-0.015-0.076-0.028-0.15-0.042-0.224c-0.013-0.071-0.027-0.144-0.04-0.216c-0.085-0.457-0.168-0.915-0.251-1.371
				c-0.083-0.458-0.167-0.915-0.251-1.372c-0.084-0.458-0.169-0.915-0.257-1.371c-0.086-0.457-0.175-0.913-0.267-1.368
				c-0.026-0.134-0.04-0.25-0.04-0.353c0-0.102,0.013-0.189,0.041-0.268s0.07-0.145,0.128-0.204c0.058-0.06,0.131-0.112,0.22-0.16
				c0.357-0.199,0.704-0.417,1.039-0.654c0.333-0.236,0.654-0.491,0.963-0.766c0.309-0.272,0.604-0.564,0.888-0.877
				c0.283-0.311,0.553-0.642,0.812-0.991c0.032-0.044,0.063-0.082,0.094-0.116c0.03-0.035,0.061-0.064,0.09-0.09
				c0.03-0.025,0.06-0.045,0.089-0.062c0.03-0.016,0.059-0.026,0.089-0.033c0.038-0.008,0.076-0.009,0.116-0.003
				c0.04,0.007,0.08,0.021,0.123,0.043c0.042,0.021,0.086,0.05,0.133,0.086s0.095,0.079,0.146,0.131
				c0.313,0.316,0.627,0.626,0.94,0.933c0.312,0.305,0.623,0.605,0.935,0.903c0.31,0.297,0.619,0.591,0.927,0.884
				c0.307,0.292,0.613,0.582,0.917,0.873c0.213-0.497,0.423-0.986,0.63-1.467c0.206-0.479,0.409-0.954,0.611-1.424
				c0.201-0.466,0.4-0.93,0.599-1.393c0.198-0.46,0.395-0.918,0.593-1.378c-0.014-0.015-0.031-0.034-0.05-0.059
				c-0.021-0.022-0.043-0.05-0.067-0.078c-0.025-0.028-0.051-0.059-0.079-0.09c-0.027-0.03-0.056-0.062-0.084-0.091
				c-0.264-0.26-0.528-0.521-0.792-0.783c-0.266-0.263-0.531-0.525-0.798-0.789c-0.268-0.264-0.537-0.527-0.808-0.791
				c-0.272-0.264-0.546-0.528-0.822-0.79c-0.093-0.09-0.173-0.179-0.238-0.268c-0.065-0.091-0.116-0.183-0.149-0.282
				c-0.033-0.099-0.049-0.206-0.045-0.324c0.003-0.119,0.026-0.25,0.07-0.398c0.041-0.133,0.078-0.27,0.111-0.41
				c0.033-0.14,0.063-0.282,0.089-0.426c0.026-0.144,0.049-0.289,0.069-0.436c0.02-0.146,0.037-0.292,0.05-0.438
				c0.035-0.382,0.067-0.763,0.098-1.145c0.031-0.384,0.061-0.768,0.089-1.154c0.029-0.387,0.058-0.776,0.086-1.171
				c0.029-0.395,0.059-0.793,0.089-1.196c0.367-0.047,0.737-0.093,1.108-0.14c0.369-0.047,0.74-0.094,1.112-0.142
				c0.37-0.046,0.74-0.093,1.11-0.14c0.368-0.047,0.736-0.092,1.103-0.139c-0.099-0.557-0.196-1.108-0.293-1.657
				c-0.098-0.55-0.195-1.098-0.292-1.646c-0.097-0.549-0.195-1.099-0.292-1.65c-0.098-0.554-0.197-1.111-0.296-1.674
				c-0.168,0.013-0.337,0.025-0.505,0.039c-0.168,0.013-0.336,0.025-0.504,0.039c-0.168,0.013-0.337,0.026-0.504,0.04
				c-0.169,0.013-0.338,0.025-0.507,0.038c-0.085,0.006-0.169,0.013-0.254,0.019s-0.169,0.013-0.254,0.019s-0.17,0.012-0.256,0.017
				c-0.085,0.006-0.171,0.012-0.257,0.017c-0.069,0.005-0.14,0.014-0.211,0.025c-0.072,0.012-0.145,0.025-0.218,0.04
				c-0.073,0.013-0.146,0.027-0.22,0.039c-0.074,0.012-0.146,0.021-0.218,0.026c-0.06,0.004-0.118,0.006-0.175,0.004
				c-0.057-0.003-0.113-0.009-0.167-0.021c-0.055-0.012-0.108-0.028-0.159-0.053c-0.051-0.022-0.1-0.052-0.146-0.09
				c-0.095-0.073-0.175-0.189-0.246-0.333c-0.072-0.145-0.136-0.315-0.197-0.497s-0.12-0.374-0.183-0.562s-0.13-0.371-0.207-0.533
				c-0.188-0.394-0.378-0.786-0.571-1.182s-0.389-0.792-0.587-1.194c-0.199-0.402-0.401-0.809-0.605-1.222
				c-0.205-0.414-0.413-0.835-0.625-1.266c0.204-0.373,0.41-0.753,0.617-1.134c0.207-0.381,0.414-0.763,0.622-1.145
				c0.207-0.381,0.413-0.761,0.617-1.138c0.204-0.375,0.406-0.747,0.605-1.113c-0.374-0.43-0.744-0.855-1.114-1.28
				c-0.372-0.428-0.744-0.854-1.118-1.283c-0.375-0.431-0.753-0.863-1.135-1.303c-0.384-0.44-0.773-0.886-1.168-1.34
				c-0.19,0.353-0.383,0.708-0.579,1.067c-0.195,0.362-0.393,0.727-0.592,1.095c-0.2,0.369-0.4,0.741-0.601,1.116
				c-0.201,0.378-0.403,0.758-0.603,1.141c-0.023,0.045-0.046,0.085-0.07,0.12c-0.023,0.035-0.047,0.064-0.072,0.09
				c-0.025,0.023-0.051,0.043-0.079,0.055c-0.027,0.013-0.057,0.019-0.089,0.018c-0.021,0.001-0.043-0.003-0.067-0.009
				c-0.024-0.007-0.049-0.017-0.075-0.029c-0.026-0.012-0.054-0.027-0.083-0.046c-0.03-0.02-0.061-0.042-0.094-0.067
				c-0.395-0.307-0.794-0.593-1.2-0.857c-0.407-0.266-0.82-0.509-1.239-0.729c-0.42-0.221-0.846-0.418-1.277-0.59
				c-0.434-0.174-0.872-0.321-1.316-0.442c-0.11-0.032-0.203-0.074-0.282-0.127c-0.078-0.053-0.142-0.116-0.195-0.192
				c-0.054-0.078-0.096-0.166-0.131-0.271c-0.035-0.103-0.062-0.221-0.085-0.354c-0.084-0.484-0.17-0.971-0.258-1.456
				c-0.087-0.485-0.177-0.971-0.268-1.455c-0.09-0.485-0.182-0.971-0.273-1.458c-0.091-0.485-0.184-0.972-0.275-1.458
				c-0.014-0.075-0.029-0.15-0.045-0.227s-0.033-0.152-0.051-0.231c-0.019-0.078-0.038-0.158-0.058-0.239
				c-0.021-0.083-0.042-0.168-0.063-0.256c-0.233-0.019-0.467-0.038-0.7-0.058c-0.233-0.019-0.466-0.038-0.699-0.057
				c-0.233-0.02-0.466-0.038-0.7-0.057c-0.234-0.02-0.468-0.039-0.702-0.059c-0.234-0.019-0.47-0.038-0.705-0.059
				c-0.236-0.019-0.472-0.039-0.708-0.06c-0.237-0.021-0.475-0.041-0.713-0.062C140.158,64.592,139.917,64.57,139.677,64.549"/>
			<path fill="#37B34A" d="M115.973,86.099c-1.364,0.069-2.742,0.139-4.135,0.209c-1.415,0.071-2.846,0.145-4.298,0.218
				c-1.473,0.075-2.968,0.15-4.488,0.229c-1.544,0.078-3.113,0.158-4.714,0.241c0.19,0.902,0.382,1.798,0.573,2.688
				c0.19,0.89,0.38,1.773,0.568,2.654c0.187,0.88,0.371,1.755,0.55,2.629c0.179,0.873,0.354,1.743,0.522,2.613
				c0.047,0.248,0.104,0.447,0.179,0.605c0.075,0.157,0.166,0.273,0.28,0.354c0.114,0.082,0.251,0.129,0.419,0.149
				c0.167,0.021,0.363,0.013,0.596-0.014c0.62-0.076,1.237-0.151,1.85-0.226c0.609-0.072,1.215-0.146,1.816-0.216
				c0.599-0.07,1.193-0.139,1.784-0.207c0.587-0.067,1.171-0.135,1.751-0.2c0.692-0.078,1.379-0.156,2.062-0.232
				c0.678-0.076,1.351-0.151,2.019-0.226c0.664-0.074,1.322-0.147,1.977-0.221c0.649-0.072,1.295-0.146,1.936-0.217
				c0.074-0.009,0.147-0.018,0.222-0.025c0.075-0.009,0.149-0.017,0.226-0.025s0.153-0.018,0.232-0.026s0.161-0.018,0.244-0.028
				c-0.184-0.906-0.365-1.806-0.546-2.7s-0.361-1.784-0.54-2.674c-0.18-0.889-0.359-1.777-0.54-2.668
				C116.336,87.893,116.155,86.999,115.973,86.099"/>
			<path fill="#37B34A" d="M121.767,114.86c-1.288,0.285-2.591,0.574-3.912,0.866c-1.339,0.298-2.697,0.6-4.075,0.906
				c-1.398,0.312-2.816,0.628-4.257,0.949c-1.463,0.327-2.95,0.66-4.462,0.999c0.202,0.956,0.402,1.907,0.602,2.854
				c0.2,0.946,0.398,1.889,0.596,2.829c0.198,0.94,0.396,1.879,0.594,2.817c0.197,0.938,0.395,1.877,0.593,2.818
				c1.49-0.431,2.953-0.853,4.392-1.268c1.417-0.408,2.812-0.81,4.185-1.204c1.353-0.389,2.685-0.771,3.999-1.147
				c1.294-0.37,2.571-0.735,3.831-1.096c-0.175-0.868-0.349-1.731-0.523-2.592c-0.174-0.861-0.347-1.72-0.52-2.577
				c-0.173-0.858-0.346-1.715-0.52-2.573C122.115,116.583,121.941,115.723,121.767,114.86"/>
			<path fill="#37B34A" d="M110.245,57.827c-1.415-0.151-2.848-0.306-4.3-0.461c-1.474-0.158-2.968-0.318-4.485-0.481
				c-1.54-0.166-3.103-0.333-4.694-0.505c-1.615-0.174-3.259-0.351-4.934-0.531c0.214,1.013,0.427,2.021,0.64,3.025
				c0.212,1.004,0.423,2.005,0.635,3.007c0.211,1,0.422,2,0.634,3.002c0.211,1,0.423,2.003,0.635,3.01
				c1.656,0.079,3.278,0.156,4.87,0.231c1.567,0.075,3.105,0.148,4.616,0.221c1.489,0.069,2.953,0.14,4.394,0.208
				c1.42,0.067,2.819,0.134,4.198,0.199c-0.185-0.914-0.369-1.825-0.553-2.733c-0.184-0.91-0.368-1.817-0.551-2.726
				s-0.368-1.817-0.552-2.728C110.615,59.655,110.431,58.743,110.245,57.827"/>
		</g>
	</g>
</g>
<g>
	<path fill="#37B34A" d="M39.728,120.924c-1.141,0.983-2.48,1.453-3.912,1.519c-2.004,0.092-3.763-0.606-5.155-2.114
		c-1.179-1.277-1.756-2.759-1.752-4.515c0.02-9.255,0.017-18.51,0.004-27.765c-0.004-2.881,2.019-5.906,5.595-6.387
		c3.892-0.522,6.848,1.855,7.548,5.432c0.056,0.282,0.034,0.582,0.034,0.873c0.002,4.701,0.001,9.401,0.001,14.102
		c0,4.613-0.015,9.227,0.007,13.839C42.105,117.974,41.276,119.589,39.728,120.924z"/>
	<path fill="#37B34A" d="M44.721,82.896c-0.025,0.003-0.048,0.029-0.069,0.048c-0.022,0.02-0.041,0.042-0.11,0.115
		c0,0.268,0,0.587,0,0.906c0,13.729,0.001,27.458-0.002,41.188c0,1.805,0.452,3.462,1.59,4.884c1.284,1.605,2.956,2.534,5.029,2.604
		c1.517,0.051,3.037,0.007,4.557,0.014c0.223,0,0.446,0.041,0.733,0.07c0,0.367,0,0.685,0,1.001c0,4.586,0.007,9.173-0.004,13.759
		c-0.005,1.941,0.795,3.546,2.217,4.758c1.934,1.646,4.218,2.083,6.632,1.247c2.527-0.876,4.343-3.279,4.332-5.979
		c-0.018-4.615-0.005-9.23-0.002-13.846c0-0.313,0.022-0.624,0.033-0.92c1.003-0.152,8.142-0.123,8.871,0.042
		c0,0.296,0,0.611,0,0.927c0,4.586,0,9.172,0.004,13.759c0,0.379-0.026,0.771,0.055,1.135c0.465,2.095,1.701,3.62,3.593,4.585
		c0.613,0.313,1.309,0.555,1.989,0.63c1.694,0.188,3.308-0.126,4.734-1.136c0.44-0.312,0.829-0.65,1.168-1.016L75.23,82.855
		c-9.997-0.002-19.993-0.005-29.99-0.005C45.067,82.851,44.894,82.878,44.721,82.896z"/>
	<path fill="#37B34A" d="M61.256,55.961c-0.08-0.086-0.154-0.14-0.193-0.213c-0.823-1.51-1.641-3.023-2.464-4.534
		c-0.655-1.203-1.31-2.406-1.979-3.602c-0.109-0.195-0.295-0.347-0.41-0.478c-0.363,0-0.649,0-1.003,0
		c-0.183,0.32-0.363,0.637-0.55,0.965c1.602,2.937,3.174,5.818,4.76,8.727c-0.407,0.238-0.731,0.431-1.059,0.619
		c-1.972,1.14-3.839,2.423-5.483,4.012c-1.343,1.298-2.605,2.661-3.688,4.195c-1.78,2.524-3.151,5.244-3.936,8.232
		c-0.367,1.4-0.717,2.814-0.746,4.284c-0.015,0.689-0.13,1.378-0.202,2.102c0.253,0.073,0.334,0.117,0.416,0.117
		c9.993,0.003,19.987,0.003,29.98,0.005l-5.743-26.629C66.323,54.183,63.763,54.917,61.256,55.961z M60.505,69.729
		c-1.361-0.077-2.265-1.016-2.313-2.406c-0.041-1.16,1.021-2.407,2.464-2.373c1.067,0.025,2.415,1.013,2.291,2.441
		C63.049,68.639,61.91,69.81,60.505,69.729z"/>
	<path fill="#37B34A" d="M42.089,87.967c0-0.291,0.021-0.591-0.034-0.873c-0.7-3.576-3.656-5.954-7.548-5.432
		c-3.576,0.48-5.599,3.506-5.595,6.387c0.013,9.255,0.016,18.51-0.004,27.765c-0.004,1.756,0.573,3.237,1.752,4.515
		c1.393,1.508,3.151,2.206,5.155,2.114c1.432-0.065,2.771-0.535,3.912-1.519c1.549-1.335,2.378-2.95,2.369-5.017
		c-0.021-4.612-0.007-9.226-0.007-13.839C42.09,97.368,42.091,92.668,42.089,87.967z"/>
</g>
</svg>
